<?xml version="1.0" standalone="no"?><!DOCTYPE svg PUBLIC "-//W3C//DTD SVG 1.1//EN" "http://www.w3.org/Graphics/SVG/1.1/DTD/svg11.dtd"><svg t="1526546017812" class="icon" style="" viewBox="0 0 1024 1024" version="1.1" xmlns="http://www.w3.org/2000/svg" p-id="5685" xmlns:xlink="http://www.w3.org/1999/xlink" width="64" height="64"><defs><style type="text/css"></style></defs><path d="M142.86848 530.55488l526.17216 0 0 105.92256L142.86848 636.47744 142.86848 530.55488 142.86848 530.55488zM142.86848 693.53472l420.90496 0 0 105.92256L142.86848 799.45728 142.86848 693.53472 142.86848 693.53472zM945.19296 672.72704l0 158.55616c0 21.83168-17.69472 39.60832-39.36256 39.60832L118.1696 870.89152c-21.74976 0-39.36256-17.77664-39.36256-39.60832l0-158.55616L0 672.72704l0 158.55616c0 65.69984 52.96128 118.86592 118.1696 118.86592l787.6608 0c65.20832 0 118.1696-53.20704 118.1696-118.86592l0-158.55616L945.19296 672.72704 945.19296 672.72704zM505.73312 473.04704l-56.56576 0L408.69888 363.80672 243.5072 363.80672l-38.17472 109.24032-56.5248 0 151.06048-399.23712 54.76352 0L505.73312 473.04704 505.73312 473.04704zM392.8064 318.70976 332.92288 152.73984c-1.92512-5.3248-3.97312-14.62272-6.144-27.8528L325.46816 124.88704c-1.92512 12.00128-3.97312 21.2992-6.38976 27.8528L259.64544 318.70976 392.8064 318.70976 392.8064 318.70976zM563.07712 473.04704 563.07712 73.85088l113.2544 0c60.08832 0 110.10048 17.6128 149.9136 52.8384 39.936 35.2256 59.8016 82.49344 59.8016 141.80352 0 61.8496-19.8656 111.4112-59.8016 148.72576-39.89504 37.2736-91.21792 55.86944-154.05056 55.86944L563.07712 473.04704 563.07712 473.04704zM614.31808 119.72608l0 307.73248 57.58976 0c50.33984 0 89.62048-13.80352 117.9648-41.49248 28.18048-27.648 42.35264-66.43712 42.35264-116.24448s-14.49984-87.28576-43.54048-112.39424c-29.04064-25.06752-67.1744-37.60128-114.4832-37.60128L614.31808 119.72608 614.31808 119.72608z" p-id="5686"></path></svg>