<?xml version="1.0" standalone="no"?><!DOCTYPE svg PUBLIC "-//W3C//DTD SVG 1.1//EN" "http://www.w3.org/Graphics/SVG/1.1/DTD/svg11.dtd"><svg t="1526545984532" class="icon" style="" viewBox="0 0 1024 1024" version="1.1" xmlns="http://www.w3.org/2000/svg" p-id="5466" xmlns:xlink="http://www.w3.org/1999/xlink" width="64" height="64"><defs><style type="text/css"></style></defs><path d="M871.232 969.6H152.704c-54.016 0-97.92-43.968-97.92-97.92V553.28a38.4 38.4 0 1 1 76.8 0v318.464a21.12 21.12 0 0 0 21.12 21.184h718.528a21.12 21.12 0 0 0 21.184-21.184V553.28a38.4 38.4 0 1 1 76.8 0v318.464c0 53.952-43.968 97.856-97.984 97.856z" p-id="5467"></path><path d="M512 643.648a38.4 38.4 0 0 1-38.4-38.4V154.624a38.4 38.4 0 1 1 76.8 0v450.688a38.4 38.4 0 0 1-38.4 38.336z" p-id="5468"></path><path d="M301.632 341.376a38.4 38.4 0 0 1-27.136-65.6L511.936 38.4l237.376 237.376a38.464 38.464 0 0 1-54.272 54.336L511.936 147.008 328.832 330.112a38.4 38.4 0 0 1-27.2 11.264z" p-id="5469"></path></svg>