<?xml version="1.0" standalone="no"?><!DOCTYPE svg PUBLIC "-//W3C//DTD SVG 1.1//EN" "http://www.w3.org/Graphics/SVG/1.1/DTD/svg11.dtd"><svg t="1526546032426" class="icon" style="" viewBox="0 0 1024 1024" version="1.1" xmlns="http://www.w3.org/2000/svg" p-id="5901" xmlns:xlink="http://www.w3.org/1999/xlink" width="64" height="64"><defs><style type="text/css"></style></defs><path d="M908.288 365.056l-141.824-321.536L2.048 380.416l184.32 417.792v170.496h836.096v-604.16h-114.176zM185.856 427.52l-26.112 10.752 26.112 60.928v155.648L80.896 406.016l657.408-278.528 100.864 237.568H773.12l-67.072-158.208-372.736 158.208h-146.944V427.52z m775.168 480.768H246.784V426.496h713.728v481.792z" p-id="5902"></path><path d="M525.312 609.792h-1.024c-0.512 4.608-1.536 9.216-2.56 13.312l-18.432 55.808h42.496L527.36 623.616c-1.024-3.072-1.536-7.68-2.048-13.824zM675.84 610.304h-18.432v104.448h18.432c16.384 0 28.672-4.608 37.888-14.336 9.216-9.728 13.824-22.528 13.824-38.912 0-15.872-4.608-28.16-14.336-37.376-9.216-9.216-22.016-13.824-37.376-13.824z" p-id="5903"></path><path d="M900.096 486.912H307.712v360.448h592.384V486.912zM565.76 742.4l-11.776-36.864h-58.368l-11.776 36.864h-36.864l58.368-159.744h39.936L603.136 742.4h-37.376z m174.08-22.528c-15.872 14.848-36.352 22.528-61.44 22.528h-55.296V582.656h55.296c56.832 0 84.992 26.112 84.992 77.824 0.512 24.576-7.68 44.544-23.552 59.392z" p-id="5904"></path></svg>