<?xml version="1.0" encoding="utf-8"?>
<!-- Svg Vector Icons : http://www.sfont.cn -->
<!DOCTYPE svg PUBLIC "-//W3C//DTD SVG 1.1//EN" "http://www.w3.org/Graphics/SVG/1.1/DTD/svg11.dtd">
<svg version="1.1" xmlns="http://www.w3.org/2000/svg" xmlns:xlink="http://www.w3.org/1999/xlink" x="0px" y="0px" viewBox="0 0 1000 1000" enable-background="new 0 0 1000 1000" xml:space="preserve">
<metadata> Svg Vector Icons : http://www.sfont.cn </metadata>
<g><g transform="translate(0.000000,512.000000) scale(0.100000,-0.100000)"><path d="M339.3,4983.6c-93.8-44-170.4-122.5-208.6-216.3c-26.8-63.2-30.6-553.2-30.6-4651.2c0-4417.7,1.9-4582.3,36.4-4656.9c44-93.8,122.5-170.4,216.3-208.6c63.2-26.8,555.1-30.6,4655-30.6h4582.3l101.4,53.6c82.3,42.1,112.9,72.7,155,155l53.6,101.4V112.3c0,4099.9-3.8,4591.8-30.6,4655c-38.3,93.8-114.8,172.3-208.6,216.3c-74.7,34.5-239.3,36.4-4660.7,36.4S413.9,5018.1,339.3,4983.6z M1449.4,4265.9c107.2-45.9,128.2-112.9,120.6-377.1c-7.7-317.7-21-331.1-338.8-338.8c-354.1-9.6-403.9,34.4-403.9,369.4c0,222,28.7,304.3,118.7,344.5C1032.2,4300.3,1361.4,4302.2,1449.4,4265.9z M2925.2,4263.9c93.8-38.3,122.5-118.7,122.5-344.5c0-335-49.8-379-403.9-369.4c-218.2,5.7-229.7,7.7-279.5,59.3c-51.7,49.8-53.6,61.3-59.3,279.5c-7.7,260.3,13.4,331.1,116.7,375.2C2506,4302.2,2837.1,4302.2,2925.2,4263.9z M4347.3,4281.2c32.5-7.7,80.4-34.5,107.2-61.2c45.9-45.9,47.9-55.5,47.9-298.6c0-361.8-23-382.8-392.4-371.3l-224,5.7l-55.5,63.2c-55.5,61.3-55.5,65.1-55.5,287.1c0,254.6,17.2,304.3,114.8,352.2C3958.7,4294.6,4219.1,4306.1,4347.3,4281.2z M9134.4,2780.5c38.3-38.3,38.3-63.2,38.3-3397.5c0-3338.1,0-3359.2-38.3-3397.5s-55.5-38.3-4145.9-34.5c-4040.6,5.7-4107.6,5.7-4134.4,42.1c-23,32.5-26.8,526.4-26.8,3393.6c0,3330.5,0,3355.4,38.3,3393.6c38.3,38.3,63.2,38.3,4134.4,38.3C9071.2,2818.8,9096.1,2818.8,9134.4,2780.5z"/><path d="M6031.7,1117.2c-26.8-9.6-70.8-30.6-97.6-47.9c-28.7-19.1-315.8-495.7-763.7-1272.9c-534-928.3-721.6-1238.4-736.9-1221.2c-11.5,13.4-204.8,342.6-428.8,731.2C3780.7-303,3579.8,35.8,3556.8,58.8c-114.8,130.2-325.4,134-436.4,9.6c-17.2-19.1-139.7-220.1-271.8-446l-237.3-411.5l-545.5-9.6c-514.9-9.6-549.3-11.5-599.1-49.8c-137.8-103.4-176.1-246.9-99.5-388.6c82.3-155,84.2-155,840.3-155c792.4,0,729.3-21,911.1,287.1c65.1,111,141.6,239.3,168.4,285.2l49.8,84.2l421.1-735c436.4-759.9,518.7-876.7,624-882.4c170.3-7.6,250.7,30.6,331.1,157c28.7,47.9,348.4,599.1,708.2,1225c361.8,625.9,666.1,1150.4,677.6,1163.7c17.2,17.2,114.8-137.8,432.6-689.1c223.9-392.4,428.8-742.7,453.6-777.1c88-118.7,90-118.7,823-118.7H8474l68.9,45.9c178,120.6,174.2,363.7-7.6,497.7c-51.7,38.3-84.2,40.2-601,49.8l-545.5,9.6l-530.2,918.8c-411.5,713.9-541.7,924.5-585.7,949.4C6200.1,1121,6096.8,1136.4,6031.7,1117.2z"/></g></g>
</svg>