<?xml version="1.0" standalone="no"?><!DOCTYPE svg PUBLIC "-//W3C//DTD SVG 1.1//EN" "http://www.w3.org/Graphics/SVG/1.1/DTD/svg11.dtd"><svg class="icon" width="64px" height="64.00px" viewBox="0 0 1024 1024" version="1.1" xmlns="http://www.w3.org/2000/svg"><path  d="M448 416h-64a32 32 0 0 1 0-64h64a32 32 0 0 1 0 64z m320 256H256a32 32 0 0 1 0-64h512a32 32 0 0 1 0 64z m0 128H256a32 32 0 0 1 0-64h512a32 32 0 0 1 0 64z m-32-256H288a64 64 0 0 1-64-64V288a64 64 0 0 1 64-64h448a64 64 0 0 1 64 64v192a64 64 0 0 1-64 64zM288 288v192h448V288H288z" /></svg>