<?xml version="1.0" standalone="no"?><!DOCTYPE svg PUBLIC "-//W3C//DTD SVG 1.1//EN" "http://www.w3.org/Graphics/SVG/1.1/DTD/svg11.dtd"><svg t="1535447388869" class="icon" style="" viewBox="0 0 1024 1024" version="1.1" xmlns="http://www.w3.org/2000/svg" p-id="1562" xmlns:xlink="http://www.w3.org/1999/xlink" width="200" height="200"><defs><style type="text/css"></style></defs><path d="M950.857143 548.571429q-86.857143-134.857143-217.714286-201.714286 34.857143 59.428571 34.857143 128.571428 0 105.714286-75.142857 180.857143T512 731.428571t-180.857143-75.142857T256 475.428571q0-69.142857 34.857143-128.571428-130.857143 66.857143-217.714286 201.714286 76 117.142857 190.571429 186.571428T512 804.571429t248.285714-69.428572T950.857143 548.571429zM539.428571 329.142857q0-11.428571-8-19.428571t-19.428571-8q-71.428571 0-122.571429 51.142857T338.285714 475.428571q0 11.428571 8 19.428572t19.428572 8 19.428571-8 8-19.428572q0-49.142857 34.857143-84t84-34.857142q11.428571 0 19.428571-8t8-19.428572z m484.571429 219.428572q0 19.428571-11.428571 39.428571-80 131.428571-215.142858 210.571429T512 877.714286t-285.428571-79.428572T11.428571 588Q0 568 0 548.571429t11.428571-39.428572q80-130.857143 215.142858-210.285714T512 219.428571t285.428571 79.428572T1012.571429 509.142857q11.428571 20 11.428571 39.428572z" p-id="1563"></path></svg>