<?xml version="1.0" encoding="utf-8"?>
<!-- Svg Vector Icons : http://www.sfont.cn -->
<!DOCTYPE svg PUBLIC "-//W3C//DTD SVG 1.1//EN" "http://www.w3.org/Graphics/SVG/1.1/DTD/svg11.dtd">
<svg version="1.1" xmlns="http://www.w3.org/2000/svg" xmlns:xlink="http://www.w3.org/1999/xlink" x="0px" y="0px" viewBox="0 0 1000 1000" enable-background="new 0 0 1000 1000" xml:space="preserve">
<metadata> Svg Vector Icons : http://www.sfont.cn </metadata>
<g><path d="M500,80c231.6,0,420,188.4,420,420c0,231.6-188.4,420-420,420C268.4,920,80,731.6,80,500C80,268.4,268.4,80,500,80 M500,10C229.4,10,10,229.4,10,500c0,270.6,219.4,490,490,490c270.6,0,490-219.4,490-490C990,229.4,770.6,10,500,10L500,10z"/><path d="M306,368.1c4.6-53.3,24.7-95.6,60.1-126.9c35.3-31.3,80.3-47,134.7-47c57.7,0,104.3,15.4,139.9,46.1c35.6,30.7,53.3,69.9,53.3,117.5c0,26.8-6,51.7-18.2,74.6c-12.2,23-35.1,48.4-68.7,76.3c-33.6,27.9-54.3,50.1-61.9,66.6c-7.6,16.5-11.6,44.1-11.6,82.7h-72.2c0-50.9,5.9-88.1,17.6-111.8s33.5-48.9,65.1-75.7c31.6-26.8,51.1-47.4,58.8-61.7s11.5-29.6,11.5-45.7c0-31.4-10.4-57.3-31.1-77.7c-20.8-20.4-48-30.6-81.7-30.6c-65.7,0-104.2,37.7-115.6,113.2H306z M542.3,805.8h-84.1v-84.1h84.1L542.3,805.8L542.3,805.8z"/></g>
</svg>