<?xml version="1.0" standalone="no"?><!DOCTYPE svg PUBLIC "-//W3C//DTD SVG 1.1//EN" "http://www.w3.org/Graphics/SVG/1.1/DTD/svg11.dtd"><svg t="1527576791219" class="icon" style="" viewBox="0 0 1024 1024" version="1.1" xmlns="http://www.w3.org/2000/svg" p-id="1075" xmlns:xlink="http://www.w3.org/1999/xlink" width="64" height="64"><defs><style type="text/css"></style></defs><path d="M1004.032 414.464L587.456 36.8A112.96 112.96 0 0 0 503.808 0C472 0 441.6 13.248 421.44 35.328L20.288 414.208c-20.032 19.84-25.792 48.832-14.72 74.56a70.4 70.4 0 0 0 65.408 41.728h36.096v385.28c0 59.712 49.152 108.224 110.592 108.224h172.288c22.4 0 42.24-17.536 42.24-39.296v-256.192c0-10.88 7.36-20.672 18.56-20.672h121.6c11.136 0 19.712 9.792 19.712 20.672v256.192c0 21.76 18.688 39.296 41.024 39.296h172.288c61.44 0 111.744-48.512 111.744-108.288V530.56h35.904a70.4 70.4 0 0 0 65.28-41.6c11.2-25.6 5.568-54.528-14.272-74.432z" p-id="1076"></path></svg>