<?xml version="1.0" encoding="utf-8"?>
<!-- Svg Vector Icons : http://www.sfont.cn -->
<!DOCTYPE svg PUBLIC "-//W3C//DTD SVG 1.1//EN" "http://www.w3.org/Graphics/SVG/1.1/DTD/svg11.dtd">
<svg version="1.1" xmlns="http://www.w3.org/2000/svg" xmlns:xlink="http://www.w3.org/1999/xlink" x="0px" y="0px" viewBox="0 0 1000 1000" enable-background="new 0 0 1000 1000" xml:space="preserve">
<metadata> Svg Vector Icons : http://www.sfont.cn </metadata>
<g><path d="M890.2,99.5H109.8c-55.1,0-99.8,44.8-99.8,99.7v470.3c0,54.9,44.8,99.7,99.8,99.7h780.4c55.1,0,99.8-44.8,99.8-99.7V199.3C990,144.3,945.2,99.5,890.2,99.5L890.2,99.5z M902.8,669.5c0,6.8-5.8,12.6-12.6,12.6H109.8c-6.8,0-12.6-5.8-12.6-12.6V199.3c0-6.8,5.8-12.6,12.6-12.6h780.4c6.8,0,12.6,5.8,12.6,12.6V669.5z"/><path d="M813.4,408.8h-81.8L658,335.4c-10-10-26.3-10-36.2,0L485.7,471.3L363.1,348.7c-10-10-26.3-10-36.2,0L143.1,532.4c-10.1,10-10.1,26.3,0,36.2c5,5,11.6,7.6,18.2,7.6s13.1-2.5,18.2-7.6L345,403.1l122.6,122.6c4.8,4.8,11.4,7.6,18.2,7.6s13.4-2.7,18.2-7.6l136-135.9l62.9,62.8c4.8,4.8,11.4,7.6,18.2,7.6h92.4c14.1,0,25.6-11.5,25.6-25.6C839,420.2,827.5,408.8,813.4,408.8L813.4,408.8z"/><path d="M599.3,799.8H400.7c-27.7,0-50.3,22.7-50.3,50.3c0,27.7,22.7,50.3,50.3,50.3h198.6c27.7,0,50.3-22.7,50.3-50.3C649.6,822.4,627,799.8,599.3,799.8L599.3,799.8z"/></g>
</svg>