<?xml version="1.0" standalone="no"?><!DOCTYPE svg PUBLIC "-//W3C//DTD SVG 1.1//EN" "http://www.w3.org/Graphics/SVG/1.1/DTD/svg11.dtd"><svg t="1528110307971" class="icon" style="" viewBox="0 0 1024 1024" version="1.1" xmlns="http://www.w3.org/2000/svg" p-id="3884" xmlns:xlink="http://www.w3.org/1999/xlink" width="64" height="64"><defs><style type="text/css"></style></defs><path d="M171.930279 422.23865c0-5.859451-0.709151-11.530614-1.890047-17.012466l109.307522-87.710644c10.326183 4.819772 21.739117 7.725962 33.884738 7.725962 15.94925 0 30.764678-4.796236 43.240827-12.831236l98.603739 59.499116c-0.165776 2.00875-0.591471 3.922333-0.591471 5.978155 0 44.399209 35.964096 80.386842 80.33977 80.386842 44.375673 0 80.338746-35.987632 80.338746-80.386842 0-8.483208-1.678222-16.492626-4.111644-24.172539l162.757874-166.490895c8.459672 3.025916 17.438161 4.963035 26.937512 4.963035 44.37465 0 80.338746-35.986609 80.338746-80.385818 0-44.399209-35.964096-80.386842-80.338746-80.386842-44.375673 0-80.33977 35.986609-80.33977 80.386842 0 8.529257 1.700735 16.58677 4.158716 24.313755l-162.640194 166.420287c-8.506744-3.071965-17.533328-5.010107-27.102265-5.010107-16.210193 0-31.28554 4.891404-43.902906 13.160741l-98.061386-59.190077c0.189312-2.221598 0.661056-4.371564 0.661056-6.66377 0-44.375673-35.963073-80.363306-80.291674-80.363306-44.375673 0-80.338746 35.987632-80.338746 80.363306 0 6.001691 0.756223 11.81407 1.984191 17.414625l-109.071138 87.545892c-10.396791-4.962012-21.928429-7.939833-34.215266-7.939833-44.375673 0-80.338746 36.010145-80.338746 80.386842 0 44.399209 35.964096 80.385818 80.338746 80.385818S171.930279 466.63786 171.930279 422.23865z" p-id="3885"></path><path d="M933.732625 563.611471c-44.375673 0-80.33977 35.987632-80.33977 80.387865 0 8.529257 1.701758 16.564257 4.158716 24.266683L694.888865 834.708819c-8.506744-3.071965-17.533328-5.010107-27.078729-5.010107-9.073656 0-17.627473 1.843998-25.732058 4.583388L521.923512 713.962781c2.742461-8.081049 4.583388-16.58677 4.583388-25.613354 0-44.399209-35.963073-80.386842-80.337723-80.386842-44.375673 0-80.338746 35.987632-80.338746 80.386842 0 5.978155 0.779759 11.766998 2.032286 17.391089l-109.072161 87.521333c-10.420327-4.938476-21.927405-7.915273-34.214243-7.915273-44.375673 0-80.338746 35.987632-80.338746 80.386842s35.963073 80.386842 80.338746 80.386842c44.375673 0 80.338746-35.987632 80.338746-80.386842 0-5.836939-0.709151-11.507078-1.890047-17.036002l109.307522-87.711667c10.326183 4.820796 21.715581 7.726985 33.836643 7.726985 9.026584 0 17.532305-1.818415 25.613354-4.560876L592.007707 884.518249c-2.741437 8.080026-4.53734 16.587793-4.53734 25.566282 0 44.375673 35.964096 80.386842 80.33977 80.386842 44.327578 0 80.338746-36.010145 80.338746-80.386842 0-8.483208-1.700735-16.492626-4.111644-24.150026L906.796136 719.398584c8.459672 3.02387 17.438161 4.962012 26.936489 4.962012 44.375673 0 80.33977-35.986609 80.33977-80.361259C1014.072395 599.599104 978.108299 563.611471 933.732625 563.611471z" p-id="3886"></path></svg>