<?xml version="1.0" encoding="utf-8"?>
<!-- Svg Vector Icons : http://www.sfont.cn -->
<!DOCTYPE svg PUBLIC "-//W3C//DTD SVG 1.1//EN" "http://www.w3.org/Graphics/SVG/1.1/DTD/svg11.dtd">
<svg version="1.1" xmlns="http://www.w3.org/2000/svg" xmlns:xlink="http://www.w3.org/1999/xlink" x="0px" y="0px" viewBox="0 0 1000 1000" enable-background="new 0 0 1000 1000" xml:space="preserve">
<metadata> Svg Vector Icons : http://www.sfont.cn </metadata>
<g><path d="M556.9,646.6h119.6v183.3c0,21.2-3.2,39.7-9.6,55.5c-6.4,15.8-15,28.6-25.6,38.6c-10.6,10-23,17.4-37.1,22.2c-14.1,4.8-29.3,7.2-45.3,7.2H132.5c-15.4,0-30.5-3.1-45.3-9.2c-14.8-6.1-27.8-14.6-39.1-25.6c-11.3-10.9-20.4-23.8-27.5-38.6C13.5,865.2,10,848.8,10,830.8V165.3c0-15.4,3.7-30.2,11.1-44.4c7.4-14.1,16.9-26.7,28.5-37.6C61.1,72.4,74,63.5,88.1,56.8c14.1-6.7,28.3-10.1,42.4-10.1H554c16.7,0,32.5,3.7,47.3,11.1c14.8,7.4,27.8,16.7,39.1,28c11.3,11.3,20.1,24,26.5,38.1c6.4,14.1,9.6,28,9.6,41.5v177.5H556.9l1-184.2H131.5l-1,672.3h426.3V646.6L556.9,646.6z M971.7,466.2c23.8,19.3,24.4,38.3,1.9,56.9c-12.9,9.6-26.8,21.5-42,35.7c-15.1,14.1-30.9,28.8-47.3,43.9c-16.4,15.1-32.6,30.1-48.7,44.8c-16.1,14.8-30.9,27.7-44.4,38.6c-14.8,11.6-27.5,17.4-38.1,17.4c-10.6,0-15.9-7.7-15.9-23.1c1.3-9,1.4-20.3,0.5-33.8c-1-13.5-1.5-25.1-1.5-34.7c0-10.9-3.9-17.7-11.6-20.3c-7.7-2.6-17-3.9-28-3.9h-38.6h-58.8c-21.9,0-44.9-0.2-69-0.5c-24.1-0.3-47.1-0.5-69-0.5h-58.8H363c-5.1,0-10.8-0.5-16.9-1.4c-6.1-1-11.6-3.1-16.4-6.3c-4.8-3.2-8.7-7.7-11.6-13.5c-2.9-5.8-4.3-13.2-4.3-22.2c0-12.2-0.2-26.7-0.5-43.4c-0.3-16.7-0.2-31.5,0.5-44.4c0-17.4,4.2-29.3,12.5-35.7c8.4-6.4,21.9-9.3,40.5-8.7h31.8h55.9c20.6,0,42.6,0.2,66.1,0.5c23.5,0.3,45.8,0.5,67,0.5h57.9h36.7c16.1,0.6,29.7-0.6,41-3.9c11.3-3.2,16.9-10.3,16.9-21.2c0-9,0.3-19.1,1-30.4c0.6-11.3,1-21.4,1-30.4c0-14.8,4-24.1,12.1-28c8-3.9,18.2-1,30.4,8.7c12.2,10.3,26.5,22.3,42.9,36.2c16.4,13.8,33,28,49.7,42.4c16.7,14.5,33.3,28.8,49.7,42.9C943.2,442.8,958.2,455.3,971.7,466.2L971.7,466.2z"/></g>
</svg>