<?xml version="1.0" standalone="no"?><!DOCTYPE svg PUBLIC "-//W3C//DTD SVG 1.1//EN" "http://www.w3.org/Graphics/SVG/1.1/DTD/svg11.dtd"><svg t="1526030444668" class="icon" style="" viewBox="0 0 1024 1024" version="1.1" xmlns="http://www.w3.org/2000/svg" p-id="2838" xmlns:xlink="http://www.w3.org/1999/xlink" width="64" height="64"><defs><style type="text/css"></style></defs><path d="M64 0l0 960 832 0L896 0 64 0zM832 896 128 896 128 64l704 0L832 896zM257.024 256l-64 0L193.024 192l64 0L257.024 256zM768 256 320 256 320 192l448 0L768 256zM257.024 384l-64 0L193.024 320l64 0L257.024 384zM768 384 320 384 320 320l448 0L768 384zM257.024 512l-64 0L193.024 448l64 0L257.024 512zM768 512 320 512 320 448l448 0L768 512zM257.024 640l-64 0L193.024 576l64 0L257.024 640zM768 640 320 640 320 576l448 0L768 640zM257.024 768l-64 0 0-64 64 0L257.024 768zM768 768 320 768l0-64 448 0L768 768z" p-id="2839"></path></svg>