<?xml version="1.0" standalone="no"?><!DOCTYPE svg PUBLIC "-//W3C//DTD SVG 1.1//EN" "http://www.w3.org/Graphics/SVG/1.1/DTD/svg11.dtd"><svg t="1526545968667" class="icon" style="" viewBox="0 0 1024 1024" version="1.1" xmlns="http://www.w3.org/2000/svg" p-id="5358" xmlns:xlink="http://www.w3.org/1999/xlink" width="64" height="64"><defs><style type="text/css"></style></defs><path d="M884.6 579.9H135.8c-41.4 0-74.9-29.6-74.9-66.3 0-36.6 33.5-66.2 74.9-66.2h748.8c41.4 0 74.9 29.7 74.9 66.2-0.1 36.7-33.5 66.3-74.9 66.3z m0-320.3H135.8c-41.4 0-74.9-29.7-74.9-66.3s33.5-66.2 74.9-66.2h748.8c41.4 0 74.9 29.7 74.9 66.2s-33.5 66.3-74.9 66.3zM135.8 767.7h748.8c41.4 0 74.9 29.6 74.9 66.3 0 36.6-33.5 66.2-74.9 66.2H135.8c-41.4 0-74.9-29.6-74.9-66.2s33.5-66.3 74.9-66.3z m0 0" p-id="5359"></path></svg>