<?xml version="1.0" standalone="no"?><!DOCTYPE svg PUBLIC "-//W3C//DTD SVG 1.1//EN" "http://www.w3.org/Graphics/SVG/1.1/DTD/svg11.dtd"><svg t="1526030434417" class="icon" style="" viewBox="0 0 1024 1024" version="1.1" xmlns="http://www.w3.org/2000/svg" p-id="2694" xmlns:xlink="http://www.w3.org/1999/xlink" width="64" height="64"><defs><style type="text/css"></style></defs><path d="M789.922 305.423h111.583c30.757 0 55.792-24.958 55.792-55.65V138.476c0-30.69-25.035-55.649-55.792-55.649H789.922c-30.756 0-55.791 24.958-55.791 55.65v27.823H559.319c-15.419 0-27.896 12.46-27.896 27.826v297.253H407.717V380.08c0-30.691-25.035-55.65-55.791-55.65H120.192c-30.77 0-55.792 24.959-55.792 55.65v278.245c0 30.691 25.022 55.65 55.792 55.65h231.734c30.756 0 55.791-24.959 55.791-55.65V547.027h123.706v297.267c0 15.366 12.477 27.825 27.896 27.825h174.348c0.156 0 0.308-0.01 0.463-0.011v27.836c0 30.691 25.035 55.65 55.791 55.65h111.583c30.757 0 55.792-24.959 55.792-55.65v-111.3c0-30.69-25.035-55.649-55.792-55.649H789.921c-30.756 0-55.791 24.959-55.791 55.65v27.836c-0.155-0.003-0.308-0.011-0.463-0.011H587.215V547.027H734.13v32.933c0 30.691 25.035 55.65 55.791 55.65h111.583c30.757 0 55.792-24.959 55.792-55.65V468.662c0-30.691-25.035-55.65-55.792-55.65H789.922c-30.756 0-55.791 24.959-55.791 55.65v22.716H587.215V221.95H734.13v27.824c0 30.692 25.035 55.649 55.791 55.649z m0-166.948h111.583l0.028 111.299h-111.61V138.475z m-669.73 519.85V380.08h231.734l0.027 278.245H120.192z m669.73 130.32h111.583l0.028 111.298h-111.61V788.645z m0-319.983h111.583l0.028 111.298h-111.61V468.662z"  p-id="2695"></path></svg>