<?xml version="1.0" standalone="no"?><!DOCTYPE svg PUBLIC "-//W3C//DTD SVG 1.1//EN" "http://www.w3.org/Graphics/SVG/1.1/DTD/svg11.dtd"><svg t="1528110223507" class="icon" style="" viewBox="0 0 1024 1024" version="1.1" xmlns="http://www.w3.org/2000/svg" p-id="3776" xmlns:xlink="http://www.w3.org/1999/xlink" width="64" height="64"><defs><style type="text/css"></style></defs><path d="M360.36152274 120.14828726c-6.00735169 3.00367584-9.01102671 3.00367584-15.00490887 6.00735086C192.2095635 192.22303302 90.125 342.35293801 90.125 513.49510275c0 231.20220877 189.16421897 420.36642773 420.36642773 420.36642774 171.14216473 0 324.28921508-105.08823935 390.34314048-261.23896472 0-3.00367584 3.00367584-5.99388218 3.00367502-5.99388218 6.00735169-15.01837839-3.00367584-33.02696311-18.0085839-39.03431396-15.01837839-5.98041266-33.04043179 3.01714536-39.04778347 18.02205423 0 3.00367584-3.00367584 3.00367584-3.00367585 5.99388134-54.03922283 135.12499612-186.16054312 222.20465076-333.28677228 222.20465159-198.17524567 0-360.3198532-162.14460755-360.3198532-360.31985404 0-144.13602283 87.07965463-273.24019858 216.19729906-330.28309643 3.00367584-3.00367584 6.00735169-3.00367584 12.01470255-6.00735169 15.00490887-6.00735169 24.00246607-24.01593558 18.00858472-39.03431396-3.00367584-18.02205423-21.01225973-24.01593558-36.03063812-18.02205341M543.51839002 480.46814048h330.28309726C858.7965784 306.30883038 720.68137595 165.18995208 543.51839002 150.17157452V480.46814048zM513.49510275 90.125c231.20220877 0 420.36642773 189.16421897 420.36642774 420.36642773 0 18.02205423-12.01470254 30.02328726-30.02328726 30.02328645h-390.34314048c-17.9951152 0-30.02328726-12.00123303-30.02328644-30.02328645V120.14828726C483.47181631 102.13970254 495.48651885 90.125 513.49510275 90.125" p-id="3777"></path></svg>