<?xml version="1.0" encoding="utf-8"?>
<!-- Svg Vector Icons : http://www.sfont.cn -->
<!DOCTYPE svg PUBLIC "-//W3C//DTD SVG 1.1//EN" "http://www.w3.org/Graphics/SVG/1.1/DTD/svg11.dtd">
<svg version="1.1" xmlns="http://www.w3.org/2000/svg" xmlns:xlink="http://www.w3.org/1999/xlink" x="0px" y="0px" viewBox="0 0 1000 1000" enable-background="new 0 0 1000 1000" xml:space="preserve">
<metadata> Svg Vector Icons : http://www.sfont.cn </metadata>
<g><g><path d="M898.5,49.2c0-21.6-17.6-39.2-39.2-39.2H140.7c-21.6,0-39.2,17.6-39.2,39.2v901.6c0,21.6,17.6,39.2,39.2,39.2h718.7c21.6,0,39.2-17.6,39.2-39.2V49.2z M820.1,911.6H179.9V88.4h640.3V911.6L820.1,911.6z M284.4,277.9c0-21.6,17.6-39.2,39.2-39.2h352.8c21.6,0,39.2,17.6,39.2,39.2s-17.6,39.2-39.2,39.2H323.6C302,317.1,284.4,299.4,284.4,277.9z M284.4,486.9c0-21.6,17.6-39.2,39.2-39.2h352.8c21.6,0,39.2,17.6,39.2,39.2c0,21.6-17.6,39.2-39.2,39.2H323.6C302,526.1,284.4,508.5,284.4,486.9z M284.4,709.1c0-21.6,17.6-39.2,39.2-39.2h352.8c21.6,0,39.2,17.6,39.2,39.2c0,21.6-17.6,39.2-39.2,39.2H323.6C302,748.3,284.4,730.6,284.4,709.1z"/></g><g></g><g></g><g></g><g></g><g></g><g></g><g></g><g></g><g></g><g></g><g></g><g></g><g></g><g></g><g></g></g>
</svg>