<?xml version="1.0" standalone="no"?><!DOCTYPE svg PUBLIC "-//W3C//DTD SVG 1.1//EN" "http://www.w3.org/Graphics/SVG/1.1/DTD/svg11.dtd"><svg t="1526264162739" class="icon" style="" viewBox="0 0 1024 1024" version="1.1" xmlns="http://www.w3.org/2000/svg" p-id="774" xmlns:xlink="http://www.w3.org/1999/xlink" width="64" height="64"><defs><style type="text/css"></style></defs><path d="M729.5744 1024H170.0352C118.6048 1024 76.7744 981.6064 76.7744 929.4848V204.8c0-52.1216 41.8304-94.5152 93.2608-94.5152H729.5744c51.4304 0 93.2608 42.3936 93.2608 94.5152v724.6848c0 52.1216-41.8304 94.5152-93.2608 94.5152zM170.0352 173.312c-17.152 0-31.0784 14.1056-31.0784 31.488v724.6848c0 17.3568 13.9264 31.488 31.0784 31.488H729.5744c17.152 0 31.0784-14.1312 31.0784-31.488V204.8c0-17.3824-13.9264-31.488-31.0784-31.488H170.0352z m93.2608 126.0032h373.0176v31.5136H263.296v-31.488z m388.5568 47.2576H247.7824v-63.0016h404.096v63.0016z m-373.0176-31.488H620.7744 278.8352z m-15.5392 110.2592h373.0176v31.5136H263.296v-31.488z m388.5568 47.2576H247.7824V409.6h404.096v63.0016z m-373.0176-31.488H620.7744 278.8352z m575.36 472.6016v-63.0016c16.9984 0 30.7968-14.2336 30.7968-31.744V94.7456c0-17.4848-13.824-31.744-30.7968-31.744H294.0928c-16.9728 0-30.7968 14.2592-30.7968 31.744H201.1136C201.1136 42.5216 242.8416 0 294.1184 0h560.1024C905.4464 0 947.1744 42.496 947.1744 94.7456v724.224c0 52.224-41.728 94.7456-92.9792 94.7456zM263.296 551.3728h373.0176v31.5136H263.296v-31.488z m388.5568 47.2832H247.7824v-63.0272h404.096v63.0272zM278.8352 567.1424H620.7744 278.8352z" p-id="775"></path></svg>