<?xml version="1.0" standalone="no"?><!DOCTYPE svg PUBLIC "-//W3C//DTD SVG 1.1//EN" "http://www.w3.org/Graphics/SVG/1.1/DTD/svg11.dtd"><svg t="1528353768850" class="icon" style="" viewBox="0 0 1024 1024" version="1.1" xmlns="http://www.w3.org/2000/svg" p-id="3119" xmlns:xlink="http://www.w3.org/1999/xlink" width="64" height="64"><defs><style type="text/css"></style></defs><path d="M657.066667 558.933333c-34.133333 25.6-76.8 38.4-123.733334 38.4s-85.333333-12.8-123.733333-38.4c0 4.266667-4.266667 4.266667-8.533333 4.266667C315.733333 614.4 256 708.266667 256 810.666667c0 12.8-8.533333 21.333333-21.333333 21.333333S213.333333 823.466667 213.333333 810.666667c0-119.466667 64-226.133333 166.4-281.6-38.4-38.4-59.733333-89.6-59.733333-145.066667 0-119.466667 93.866667-213.333333 213.333333-213.333333s213.333333 93.866667 213.333334 213.333333c0 55.466667-21.333333 106.666667-59.733334 145.066667 102.4 55.466667 166.4 162.133333 166.4 281.6 0 12.8-8.533333 21.333333-21.333333 21.333333s-21.333333-8.533333-21.333333-21.333333c0-102.4-59.733333-196.266667-149.333334-247.466667 0 0-4.266667 0-4.266666-4.266667z m-123.733334-4.266666c93.866667 0 170.666667-76.8 170.666667-170.666667s-76.8-170.666667-170.666667-170.666667-170.666667 76.8-170.666666 170.666667 76.8 170.666667 170.666666 170.666667z" p-id="3120"></path></svg>