<?xml version="1.0" standalone="no"?><!DOCTYPE svg PUBLIC "-//W3C//DTD SVG 1.1//EN" "http://www.w3.org/Graphics/SVG/1.1/DTD/svg11.dtd"><svg t="1544084350983" class="icon" style="" viewBox="0 0 1024 1024" version="1.1" xmlns="http://www.w3.org/2000/svg" p-id="6022" xmlns:xlink="http://www.w3.org/1999/xlink" width="200" height="200"><defs><style type="text/css"></style></defs><path d="M512 0c-282.767101 0-512 229.234225-512 512 0 282.771077 229.232899 512.001325 512 512.001325 282.771077 0 512-229.228923 512-512.001325C1023.998675 229.234225 794.771077 0 512 0L512 0zM512 952.143444c-243.08435 0-440.138142-197.059093-440.138142-440.144769 0-243.08435 197.053791-440.138142 440.138142-440.138142S952.142118 268.91565 952.142118 512C952.142118 755.08435 755.083025 952.143444 512 952.143444L512 952.143444zM512 952.143444" p-id="6023" fill="#ffffff"></path><path d="M318.448174 444.382385c5.329826 0 10.550962-2.163212 14.327305-5.936904 3.769715-3.772366 5.928951-8.993502 5.928951-14.325979 0-5.332477-2.159236-10.553613-5.928951-14.325979-3.772366-3.769715-8.996153-5.934253-14.331281-5.934253-5.331152 0-10.552287 2.163212-14.323328 5.934253-3.769715 3.772366-5.934253 8.993502-5.934253 14.325979 0 5.331152 2.164538 10.552287 5.934253 14.325979C307.895886 442.219173 313.115696 444.382385 318.448174 444.382385L318.448174 444.382385zM318.448174 444.382385" p-id="6024" fill="#ffffff"></path><path d="M776.9206 362.299614c-6.326601-3.96854-13.563818-5.980646-21.512828-5.980646-7.852248 0-15.907298 1.967039-23.939814 5.852072l-110.391426 53.31682L621.076532 396.705558c0-35.191964-28.634727-63.826691-63.829342-63.826691l-266.223564 0c-35.191964 0-63.826691 28.634727-63.826691 63.826691l0 230.587558c0 35.197266 28.634727 63.826691 63.826691 63.826691l266.228866 0c35.19329 0 63.82404-28.630751 63.82404-63.826691l0-18.674937 110.427214 53.803278c8.070956 3.931426 16.169747 5.928951 24.075015 5.928951 7.903943 0 15.089466-1.993549 21.357745-5.923649 12.62404-7.909245 19.86656-22.801212 19.86656-40.853165L796.803065 403.176638C796.803065 385.13794 789.556569 370.23802 776.9206 362.299614L776.9206 362.299614zM767.358459 403.176638l0 218.400932c0 7.568592-2.258648 13.50152-6.034991 15.868859-1.561436 0.966288-3.513894 1.456722-5.809656 1.456722-3.285909 0-7.131178-1.023284-11.120926-2.966464l-123.317679-60.086137L621.075206 448.171983l123.189106-59.488337c3.983121-1.919321 7.825738-2.932001 11.114298-2.932001 2.334201 0 4.310519 0.499713 5.882559 1.489859C765.136925 389.668491 767.358459 395.476822 767.358459 403.176638L767.358459 403.176638zM256.640215 396.705558c0-18.958594 15.42084-34.383411 34.38076-34.383411l266.228866 0c18.959919 0 34.383411 15.424817 34.383411 34.383411l0 230.587558c0 18.961245-15.424817 34.383411-34.383411 34.383411l-266.228866 0c-18.958594 0-34.38076-15.423491-34.38076-34.383411L256.640215 396.705558 256.640215 396.705558zM256.640215 396.705558" p-id="6025" fill="#ffffff"></path></svg>